<?xml version="1.0" encoding="UTF-8"?>
<svg version="1.1" xmlns="http://www.w3.org/2000/svg" width="801" height="161">
<path d="M0 0 C8.06242178 6.2976338 13.84210305 14.9042514 16 25 C17.33087627 40.09672614 15.42887149 52.75767492 6 65 C5.2575 65.86625 4.515 66.7325 3.75 67.625 C1.78551626 69.9604755 1.78551626 69.9604755 1.26953125 73.1953125 C0.00709751 77.84275998 -2.84862471 80.77733804 -6.0625 84.25 C-7.24989939 85.57444466 -8.43609256 86.89997169 -9.62109375 88.2265625 C-10.20101074 88.87012695 -10.78092773 89.51369141 -11.37841797 90.17675781 C-13.53464277 92.60113102 -15.5861944 95.10146929 -17.625 97.625 C-21.31966209 102.18580998 -25.08610422 106.67818107 -28.90136719 111.13818359 C-31.1671785 113.79544929 -33.38779291 116.47099563 -35.5234375 119.234375 C-36.29945313 120.22953125 -37.07546875 121.2246875 -37.875 122.25 C-38.55304688 123.14203125 -39.23109375 124.0340625 -39.9296875 124.953125 C-42.35816177 127.3541071 -43.59281278 127.97863832 -47 128 C-50.4614789 125.94007926 -51.72352154 124.02354581 -53.10644531 120.28833008 C-53.46651672 119.33336136 -53.82658813 118.37839264 -54.1975708 117.39448547 C-54.57065369 116.36325058 -54.94373657 115.33201569 -55.328125 114.26953125 C-55.72199402 113.20514328 -56.11586304 112.14075531 -56.52166748 111.04411316 C-57.35146476 108.79107437 -58.1748143 106.53565194 -58.9921875 104.27807617 C-60.24137919 100.8362524 -61.5175339 97.40532318 -62.796875 93.97460938 C-63.60060786 91.78185391 -64.40274366 89.58851227 -65.203125 87.39453125 C-65.58430481 86.37341751 -65.96548462 85.35230377 -66.35821533 84.30024719 C-68.42634612 78.52237458 -69.21676062 74.10818199 -69 68 C-69.66676582 65.32365405 -69.66676582 65.32365405 -70.75 62.92578125 C-71.11198486 62.02134277 -71.47396973 61.1169043 -71.84692383 60.18505859 C-72.22743896 59.23711426 -72.6079541 58.28916992 -73 57.3125 C-77.98962253 43.91105875 -79.69813039 30.52068255 -74.9375 16.75 C-69.8128266 5.63936355 -61.87615201 -2.99744381 -50.3125 -7.375 C-33.04360599 -13.25921574 -15.00282478 -9.98242427 0 0 Z M-68 48 C-67.34 50.31 -66.68 52.62 -66 55 C-63.36 54.67 -60.72 54.34 -58 54 C-58 54.66 -58 55.32 -58 56 C-60.31 56.66 -62.62 57.32 -65 58 C-64.34 59.98 -63.68 61.96 -63 64 C-61.2984375 63.58427734 -61.2984375 63.58427734 -59.5625 63.16015625 C-58.04172152 62.79404291 -56.52088505 62.42817037 -55 62.0625 C-54.25621094 61.88009766 -53.51242187 61.69769531 -52.74609375 61.50976562 C-35.21125899 57.31665296 -18.45365281 59.21971575 -1 63 C0.32 61.02 1.64 59.04 3 57 C0.69 56.67 -1.62 56.34 -4 56 C-3.67 55.01 -3.34 54.02 -3 53 C-0.36 53.33 2.28 53.66 5 54 C5.99 51.69 6.98 49.38 8 47 C-15.18393555 37.98402506 -44.71367055 41.12753028 -68 48 Z " fill="#A4A8AB" transform="translate(336,21)"/>
<path d="M0 0 C7.30015586 6.44827381 11.94522684 14.65738883 12.65234375 24.5 C12.65914946 27.38902301 12.59127598 30.24608393 12.41015625 33.12890625 C7.83782124 32.69344577 3.28424055 32.25059067 -1.265625 31.6171875 C-23.10165123 28.59728303 -44.17098054 30.11401476 -65.64746094 34.84619141 C-66.28844727 34.9394873 -66.92943359 35.0327832 -67.58984375 35.12890625 C-69.46428901 33.25446099 -68.8506422 30.26279207 -68.90234375 27.75390625 C-68.82589686 17.02950029 -65.45985466 8.694633 -58.40234375 0.62890625 C-41.21279208 -14.65069523 -17.9366672 -14.01382775 0 0 Z " fill="#A2D2E3" transform="translate(333.58984375,27.87109375)"/>
<path d="M0 0 C0.78052734 -0.00773437 1.56105469 -0.01546875 2.36523438 -0.0234375 C8.18414502 -0.00335498 8.18414502 -0.00335498 10.4375 2.25 C10.67800903 4.69241333 10.67800903 4.69241333 10.66455078 7.80126953 C10.66439972 8.96232208 10.66424866 10.12337463 10.66409302 11.3196106 C10.65377045 12.57796722 10.64344788 13.83632385 10.6328125 15.1328125 C10.6299826 16.41735321 10.62715271 17.70189392 10.62423706 19.02536011 C10.61659809 22.44162767 10.59694752 25.85772537 10.5748291 29.27392578 C10.55437624 32.75941673 10.54523655 36.2449351 10.53515625 39.73046875 C10.51370175 46.57038231 10.47956271 53.410183 10.4375 60.25 C11.07558594 60.23839844 11.71367187 60.22679687 12.37109375 60.21484375 C13.19738281 60.20582031 14.02367187 60.19679687 14.875 60.1875 C16.11056641 60.17009766 16.11056641 60.17009766 17.37109375 60.15234375 C19.4375 60.25 19.4375 60.25 20.4375 61.25 C20.6875 64.6875 20.6875 64.6875 20.4375 68.25 C16.68736585 70.75008943 13.71238094 70.54601996 9.375 70.5 C8.64216797 70.50773437 7.90933594 70.51546875 7.15429688 70.5234375 C1.69086982 70.50336982 1.69086982 70.50336982 -0.5625 68.25 C-1.284375 68.745 -2.00625 69.24 -2.75 69.75 C-8.4796252 72.59439826 -15.92416744 72.2406643 -21.97265625 70.59375 C-28.26632015 67.78039735 -32.03560466 62.93522973 -35.375 57.0625 C-38.23986234 47.86478407 -38.66997754 37.8971982 -34.5234375 29.02734375 C-30.94639138 22.85405448 -26.45160493 18.51299086 -19.5625 16.25 C-16.625 15.984375 -16.625 15.984375 -13.5625 16 C-12.0465625 15.99226563 -12.0465625 15.99226563 -10.5 15.984375 C-7.4921024 16.25636574 -5.28943207 16.98678882 -2.5625 18.25 C-2.2325 15.61 -1.9025 12.97 -1.5625 10.25 C-3.480625 10.2809375 -3.480625 10.2809375 -5.4375 10.3125 C-9.3125 10.375 -9.3125 10.375 -11.5625 9.25 C-11.75 5.875 -11.75 5.875 -11.5625 2.25 C-7.69957629 -0.32528248 -4.47303122 -0.04454471 0 0 Z M-22.3125 31.25 C-25.96724362 37.09758979 -25.18270019 44.62074911 -24.5625 51.25 C-23.10461326 55.27376739 -21.30938388 58.20604549 -17.6015625 60.421875 C-14.38456586 61.72839471 -11.99839746 61.66467728 -8.5625 61.25 C-5.08684481 59.23287868 -2.85796488 57.13639464 -1.5625 53.25 C-1.31175498 50.12936425 -1.33129689 47.00468234 -1.3125 43.875 C-1.291875 43.02421875 -1.27125 42.1734375 -1.25 41.296875 C-1.21978965 36.44811397 -1.38536724 33.17379705 -4.5625 29.25 C-7.32133331 27.08767119 -9.07792103 26.31057237 -12.5625 25.875 C-16.91941041 26.4196138 -19.43671003 27.96338289 -22.3125 31.25 Z " fill="#231F20" transform="translate(496.5625,73.75)"/>
<path d="M0 0 C4.43457924 2.77161203 7.31080941 5.80742824 9 10.875 C9.15179014 13.2305448 9.24899289 15.58975123 9.31640625 17.94921875 C9.33718735 18.6330513 9.35796844 19.31688385 9.37937927 20.0214386 C9.44466154 22.2016921 9.50366017 24.38206405 9.5625 26.5625 C9.60570553 28.04232986 9.64932047 29.52214783 9.69335938 31.00195312 C9.80032083 34.62617622 9.90164823 38.25053189 10 41.875 C10.33 41.875 10.66 41.875 11 41.875 C11.04898438 41.17632812 11.09796875 40.47765625 11.1484375 39.7578125 C11.22320313 38.84773438 11.29796875 37.93765625 11.375 37 C11.44460938 36.09507813 11.51421875 35.19015625 11.5859375 34.2578125 C12 31.875 12 31.875 14 29.875 C20.57692308 30.45192308 20.57692308 30.45192308 22 31.875 C22.15423249 34.30712772 22.23166746 36.69135567 22.25 39.125 C22.270625 39.79402344 22.29125 40.46304688 22.3125 41.15234375 C22.34739859 45.59318938 21.72804459 48.35346167 19 51.875 C15.0685968 54.16831853 11.48235521 54.26818905 7 53.875 C4.9697411 52.93795743 2.96303418 51.94574592 1 50.875 C-2.09717098 50.643717 -2.09717098 50.643717 -4.875 52.375 C-10.89348191 55.04562149 -18.20100354 54.93560311 -24.4765625 53.18359375 C-29.11050364 51.10960137 -31.9636866 48.62639793 -34 43.875 C-34.7842936 38.92844652 -35.21161372 34.13798176 -32.7890625 29.61328125 C-30.19101467 26.46792893 -27.71625088 24.57154931 -24 22.875 C-24.969375 22.25625 -25.93875 21.6375 -26.9375 21 C-30 18.875 -30 18.875 -31 16.875 C-31.39201042 12.79809166 -31.25344947 10.39203691 -29.4375 6.6875 C-22.37199248 -1.46500868 -10.09729363 -3.79765468 0 0 Z M-17 9.875 C-16.979375 11.15375 -16.95875 12.4325 -16.9375 13.75 C-16.875 17.625 -16.875 17.625 -18 19.875 C-18.99 20.535 -19.98 21.195 -21 21.875 C-18.93690624 21.76021587 -16.87451646 21.63273802 -14.8125 21.5 C-13.08966797 21.39558594 -13.08966797 21.39558594 -11.33203125 21.2890625 C-8.17616149 20.89689111 -5.82991445 20.30032321 -3 18.875 C-1.62848247 16.22339943 -1.94699851 15.05031262 -2.8125 12.1875 C-3.78271865 9.73723915 -3.78271865 9.73723915 -6 8.875 C-7.49756871 8.78000497 -8.99942932 8.74512802 -10.5 8.75 C-11.2940625 8.74742188 -12.088125 8.74484375 -12.90625 8.7421875 C-15.05918534 8.74222004 -15.05918534 8.74222004 -17 9.875 Z M-10.8125 30.6875 C-12.36904297 30.91373047 -12.36904297 30.91373047 -13.95703125 31.14453125 C-17.18040433 31.9183063 -19.35309773 32.88741702 -22 34.875 C-22.75 37.875 -22.75 37.875 -22 40.875 C-19.67949954 43.65960056 -18.17258765 43.85617226 -14.5625 44.25 C-9.89115138 43.75827909 -7.52013115 42.34271284 -4.1875 39.125 C-2.53421287 35.99245596 -2.79912654 33.35680672 -3 29.875 C-5.6600359 29.875 -8.18212145 30.28856466 -10.8125 30.6875 Z " fill="#231F20" transform="translate(666,91.125)"/>
<path d="M0 0 C4.43457924 2.77161203 7.31080941 5.80742824 9 10.875 C9.15179014 13.2305448 9.24899289 15.58975123 9.31640625 17.94921875 C9.33718735 18.6330513 9.35796844 19.31688385 9.37937927 20.0214386 C9.44466154 22.2016921 9.50366017 24.38206405 9.5625 26.5625 C9.60570553 28.04232986 9.64932047 29.52214783 9.69335938 31.00195312 C9.80032083 34.62617622 9.90164823 38.25053189 10 41.875 C10.33 41.875 10.66 41.875 11 41.875 C11.04898438 41.17632812 11.09796875 40.47765625 11.1484375 39.7578125 C11.22320313 38.84773438 11.29796875 37.93765625 11.375 37 C11.44460938 36.09507813 11.51421875 35.19015625 11.5859375 34.2578125 C12 31.875 12 31.875 14 29.875 C20.57692308 30.45192308 20.57692308 30.45192308 22 31.875 C22.15423249 34.30712772 22.23166746 36.69135567 22.25 39.125 C22.270625 39.79402344 22.29125 40.46304688 22.3125 41.15234375 C22.34739859 45.59318938 21.72804459 48.35346167 19 51.875 C15.0685968 54.16831853 11.48235521 54.26818905 7 53.875 C4.9697411 52.93795743 2.96303418 51.94574592 1 50.875 C-2.09717098 50.643717 -2.09717098 50.643717 -4.875 52.375 C-10.89348191 55.04562149 -18.20100354 54.93560311 -24.4765625 53.18359375 C-29.11050364 51.10960137 -31.9636866 48.62639793 -34 43.875 C-34.7842936 38.92844652 -35.21161372 34.13798176 -32.7890625 29.61328125 C-30.19101467 26.46792893 -27.71625088 24.57154931 -24 22.875 C-24.969375 22.25625 -25.93875 21.6375 -26.9375 21 C-30 18.875 -30 18.875 -31 16.875 C-31.39201042 12.79809166 -31.25344947 10.39203691 -29.4375 6.6875 C-22.37199248 -1.46500868 -10.09729363 -3.79765468 0 0 Z M-17 9.875 C-16.979375 11.15375 -16.95875 12.4325 -16.9375 13.75 C-16.875 17.625 -16.875 17.625 -18 19.875 C-18.99 20.535 -19.98 21.195 -21 21.875 C-18.93690624 21.76021587 -16.87451646 21.63273802 -14.8125 21.5 C-13.08966797 21.39558594 -13.08966797 21.39558594 -11.33203125 21.2890625 C-8.17616149 20.89689111 -5.82991445 20.30032321 -3 18.875 C-1.62848247 16.22339943 -1.94699851 15.05031262 -2.8125 12.1875 C-3.78271865 9.73723915 -3.78271865 9.73723915 -6 8.875 C-7.49756871 8.78000497 -8.99942932 8.74512802 -10.5 8.75 C-11.2940625 8.74742188 -12.088125 8.74484375 -12.90625 8.7421875 C-15.05918534 8.74222004 -15.05918534 8.74222004 -17 9.875 Z M-10.8125 30.6875 C-12.36904297 30.91373047 -12.36904297 30.91373047 -13.95703125 31.14453125 C-17.18040433 31.9183063 -19.35309773 32.88741702 -22 34.875 C-22.75 37.875 -22.75 37.875 -22 40.875 C-19.67949954 43.65960056 -18.17258765 43.85617226 -14.5625 44.25 C-9.89115138 43.75827909 -7.52013115 42.34271284 -4.1875 39.125 C-2.53421287 35.99245596 -2.79912654 33.35680672 -3 29.875 C-5.6600359 29.875 -8.18212145 30.28856466 -10.8125 30.6875 Z " fill="#231F20" transform="translate(558,91.125)"/>
<path d="M0 0 C4.43457924 2.77161203 7.31080941 5.80742824 9 10.875 C9.15179014 13.2305448 9.24899289 15.58975123 9.31640625 17.94921875 C9.33718735 18.6330513 9.35796844 19.31688385 9.37937927 20.0214386 C9.44466154 22.2016921 9.50366017 24.38206405 9.5625 26.5625 C9.60570553 28.04232986 9.64932047 29.52214783 9.69335938 31.00195312 C9.80032083 34.62617622 9.90164823 38.25053189 10 41.875 C10.33 41.875 10.66 41.875 11 41.875 C11.04898438 41.17632812 11.09796875 40.47765625 11.1484375 39.7578125 C11.22320312 38.84773438 11.29796875 37.93765625 11.375 37 C11.44460938 36.09507813 11.51421875 35.19015625 11.5859375 34.2578125 C12 31.875 12 31.875 14 29.875 C20.57692308 30.45192308 20.57692308 30.45192308 22 31.875 C22.15423249 34.30712772 22.23166746 36.69135567 22.25 39.125 C22.270625 39.79402344 22.29125 40.46304688 22.3125 41.15234375 C22.34739859 45.59318938 21.72804459 48.35346167 19 51.875 C15.0685968 54.16831853 11.48235521 54.26818905 7 53.875 C4.9697411 52.93795743 2.96303418 51.94574592 1 50.875 C-2.09717098 50.643717 -2.09717098 50.643717 -4.875 52.375 C-10.89348191 55.04562149 -18.20100354 54.93560311 -24.4765625 53.18359375 C-29.11050364 51.10960137 -31.9636866 48.62639793 -34 43.875 C-34.7842936 38.92844652 -35.21161372 34.13798176 -32.7890625 29.61328125 C-30.19101467 26.46792893 -27.71625088 24.57154931 -24 22.875 C-24.969375 22.25625 -25.93875 21.6375 -26.9375 21 C-30 18.875 -30 18.875 -31 16.875 C-31.39201042 12.79809166 -31.25344947 10.39203691 -29.4375 6.6875 C-22.37199248 -1.46500868 -10.09729363 -3.79765468 0 0 Z M-17 9.875 C-16.979375 11.15375 -16.95875 12.4325 -16.9375 13.75 C-16.875 17.625 -16.875 17.625 -18 19.875 C-18.99 20.535 -19.98 21.195 -21 21.875 C-18.93690624 21.76021587 -16.87451646 21.63273802 -14.8125 21.5 C-13.08966797 21.39558594 -13.08966797 21.39558594 -11.33203125 21.2890625 C-8.17616149 20.89689111 -5.82991445 20.30032321 -3 18.875 C-1.62848247 16.22339943 -1.94699851 15.05031262 -2.8125 12.1875 C-3.78271865 9.73723915 -3.78271865 9.73723915 -6 8.875 C-7.49756871 8.78000497 -8.99942932 8.74512802 -10.5 8.75 C-11.2940625 8.74742188 -12.088125 8.74484375 -12.90625 8.7421875 C-15.05918534 8.74222004 -15.05918534 8.74222004 -17 9.875 Z M-10.8125 30.6875 C-12.36904297 30.91373047 -12.36904297 30.91373047 -13.95703125 31.14453125 C-17.18040433 31.9183063 -19.35309773 32.88741702 -22 34.875 C-22.75 37.875 -22.75 37.875 -22 40.875 C-19.67949954 43.65960056 -18.17258765 43.85617226 -14.5625 44.25 C-9.89115138 43.75827909 -7.52013115 42.34271284 -4.1875 39.125 C-2.53421287 35.99245596 -2.79912654 33.35680672 -3 29.875 C-5.6600359 29.875 -8.18212145 30.28856466 -10.8125 30.6875 Z " fill="#231F20" transform="translate(245,91.125)"/>
<path d="M0 0 C5.43359779 3.22799362 8.77965836 7.87181673 11.5625 13.4375 C11.5625 18.3875 11.5625 23.3375 11.5625 28.4375 C0.0125 28.4375 -11.5375 28.4375 -23.4375 28.4375 C-21.62721553 36.41996879 -21.62721553 36.41996879 -16.4375 41.4375 C-12.68651149 43.31299425 -8.61842641 42.69992809 -4.625 41.8125 C-1.55938281 39.88554062 -1.39428666 37.85459523 -0.4375 34.4375 C0.75 32.0625 0.75 32.0625 2.5625 30.4375 C6.125 30 6.125 30 9.5625 30.4375 C11.76862697 33.74669046 11.90628862 35.36937103 11.28515625 39.24609375 C9.38163279 45.01840003 4.71533667 49.17199149 -0.5625 51.9375 C-8.14313564 54.81736669 -16.43846093 54.72548682 -23.875 51.5 C-29.69349713 48.14135531 -33.04058702 43.43158614 -35.2421875 37.13671875 C-37.43037068 28.45892381 -37.27410102 19.15735667 -33.25 11.04296875 C-26.34349754 -0.27393609 -12.6898619 -5.75470481 0 0 Z M-20.4375 12.4375 C-22.7148501 15.25259993 -22.7148501 15.25259993 -22.4375 18.4375 C-15.1775 18.4375 -7.9175 18.4375 -0.4375 18.4375 C-1.46804955 12.85111899 -1.46804955 12.85111899 -5.4375 9.4375 C-11.99295515 7.71803635 -14.97490614 8.50443242 -20.4375 12.4375 Z " fill="#231F20" transform="translate(370.4375,91.5625)"/>
<path d="M0 0 C4.71575682 1.99580719 7.06138083 4.59120786 9.02734375 9.30078125 C10.39869885 13.89783954 10.0750144 17.2523837 8.3984375 21.6953125 C6.56054272 24.51779377 5.84046294 25.47080523 2.6484375 26.3828125 C-0.2890625 26.8203125 -0.2890625 26.8203125 -3.3515625 26.3828125 C-6.2890625 24.1953125 -6.2890625 24.1953125 -8.3515625 21.3828125 C-8.43678212 17.88880789 -7.68195704 16.73323095 -5.2890625 14.1953125 C-4.33 13.298125 -4.33 13.298125 -3.3515625 12.3828125 C-3.3515625 11.7228125 -3.3515625 11.0628125 -3.3515625 10.3828125 C-4.78812104 10.30149787 -6.2260108 10.24347691 -7.6640625 10.1953125 C-8.46457031 10.16050781 -9.26507813 10.12570313 -10.08984375 10.08984375 C-12.3599179 10.21948109 -12.3599179 10.21948109 -14.01953125 11.45703125 C-18.3210301 17.67591375 -17.59320214 25.09314116 -17.4765625 32.3203125 C-17.46753906 33.38572266 -17.45851562 34.45113281 -17.44921875 35.54882812 C-17.42579664 38.16039284 -17.39299702 40.77148187 -17.3515625 43.3828125 C-16.0728125 43.3415625 -14.7940625 43.3003125 -13.4765625 43.2578125 C-11.296875 43.1875 -11.296875 43.1875 -9.3515625 43.3828125 C-8.6915625 44.0428125 -8.0315625 44.7028125 -7.3515625 45.3828125 C-7.6015625 48.9453125 -7.6015625 48.9453125 -8.3515625 52.3828125 C-12.800233 54.60714775 -18.90378137 53.56780851 -23.7890625 53.5703125 C-25.04267578 53.58255859 -26.29628906 53.59480469 -27.58789062 53.60742188 C-29.38709961 53.61032227 -29.38709961 53.61032227 -31.22265625 53.61328125 C-32.32536865 53.61739014 -33.42808105 53.62149902 -34.56420898 53.62573242 C-37.3515625 53.3828125 -37.3515625 53.3828125 -40.3515625 51.3828125 C-40.6640625 48.3828125 -40.6640625 48.3828125 -40.3515625 45.3828125 C-39.6915625 44.7228125 -39.0315625 44.0628125 -38.3515625 43.3828125 C-35.7115625 43.3828125 -33.0715625 43.3828125 -30.3515625 43.3828125 C-30.3515625 32.4928125 -30.3515625 21.6028125 -30.3515625 10.3828125 C-32.6615625 10.7128125 -34.9715625 11.0428125 -37.3515625 11.3828125 C-39.2890625 10.2578125 -39.2890625 10.2578125 -40.3515625 8.3828125 C-40.6640625 5.8203125 -40.6640625 5.8203125 -40.3515625 3.3828125 C-38.3515625 1.3828125 -38.3515625 1.3828125 -36.36791992 1.1875 C-35.57232666 1.21070312 -34.7767334 1.23390625 -33.95703125 1.2578125 C-33.08369141 1.27328125 -32.21035156 1.28875 -31.31054688 1.3046875 C-29.47460004 1.35644076 -27.63866236 1.40851986 -25.80273438 1.4609375 C-16.71817493 1.62113546 -9.21797222 -2.4193349 0 0 Z " fill="#231F20" transform="translate(195.3515625,90.6171875)"/>
<path d="M0 0 C5.82536502 10.26058612 9.35174213 21.23896469 13.09912109 32.37695312 C14.32553457 35.94784375 15.65056904 39.47393271 17 43 C24.40197711 35.83679635 31.04999228 28.01235521 37.52734375 20.015625 C40.43287573 16.47206941 43.39454161 12.9805776 46.375 9.5 C47.14324097 8.60039551 47.14324097 8.60039551 47.92700195 7.68261719 C53.11527184 1.63953529 53.11527184 1.63953529 55 0 C58.34192692 0.24453124 59.60543557 0.60543557 62 3 C62 9.59830299 59.27469343 12.69820993 55 17.25 C53.80347815 18.57442928 52.60817039 19.89995638 51.4140625 21.2265625 C50.82786133 21.87012695 50.24166016 22.51369141 49.63769531 23.17675781 C47.46654316 25.59389619 45.41437142 28.09617944 43.375 30.625 C39.68033791 35.18580998 35.91389578 39.67818107 32.09863281 44.13818359 C29.8328215 46.79544929 27.61220709 49.47099563 25.4765625 52.234375 C24.70054687 53.22953125 23.92453125 54.2246875 23.125 55.25 C22.44695312 56.14203125 21.76890625 57.0340625 21.0703125 57.953125 C18.64183823 60.3541071 17.40718722 60.97863832 14 61 C10.53110865 58.9373679 9.27462015 57.01605651 7.89355469 53.27246094 C7.53348328 52.31426453 7.17341187 51.35606812 6.8024292 50.36883545 C6.24280487 48.81727753 6.24280487 48.81727753 5.671875 47.234375 C5.27800598 46.16761536 4.88413696 45.10085571 4.47833252 44.00177002 C3.64859367 41.7445093 2.82524191 39.48489202 2.0078125 37.22314453 C0.75753026 33.770793 -0.51805844 30.32858751 -1.796875 26.88671875 C-2.60049812 24.69066703 -3.40263084 22.49406921 -4.203125 20.296875 C-4.58430481 19.27059998 -4.96548462 18.24432495 -5.35821533 17.18695068 C-7.22073731 11.98309602 -8.8066529 7.54272532 -8 2 C-4.77208445 -0.1519437 -3.71599191 -0.20086443 0 0 Z " fill="#232020" transform="translate(275,88)"/>
<path d="M0 0 C3.375 0.6875 3.375 0.6875 4.375 1.6875 C4.44771741 4.04063555 4.45870868 6.39583668 4.4375 8.75 C4.42847656 10.04035156 4.41945313 11.33070312 4.41015625 12.66015625 C4.39855469 13.65917969 4.38695312 14.65820312 4.375 15.6875 C5.36242187 15.66429688 6.34984375 15.64109375 7.3671875 15.6171875 C8.64851562 15.59914063 9.92984375 15.58109375 11.25 15.5625 C13.16425781 15.52769531 13.16425781 15.52769531 15.1171875 15.4921875 C18.375 15.6875 18.375 15.6875 20.375 17.6875 C20.625 20.6875 20.625 20.6875 20.375 23.6875 C18.375 25.6875 18.375 25.6875 15.1171875 25.8828125 C13.84101562 25.85960938 12.56484375 25.83640625 11.25 25.8125 C9.32800781 25.78542969 9.32800781 25.78542969 7.3671875 25.7578125 C6.37976563 25.73460938 5.39234375 25.71140625 4.375 25.6875 C4.51412471 30.08357256 4.66246803 34.47928723 4.8125 38.875 C4.85181641 40.12087891 4.89113281 41.36675781 4.93164062 42.65039062 C4.97353516 43.85244141 5.01542969 45.05449219 5.05859375 46.29296875 C5.09525146 47.39793701 5.13190918 48.50290527 5.16967773 49.64135742 C5.35652656 52.41342972 5.75662366 54.98292873 6.375 57.6875 C9.345 57.1925 9.345 57.1925 12.375 56.6875 C13.64375645 52.88123065 13.69463223 49.27154259 13.8984375 45.28125 C14.375 42.6875 14.375 42.6875 15.6875 40.83203125 C17.375 39.6875 17.375 39.6875 21 39.875 C22.11375 40.143125 23.2275 40.41125 24.375 40.6875 C26.95204801 45.84159602 25.99341794 53.76142598 24.25 59.125 C22.26495234 63.64074824 19.05708373 66.52526372 14.5 68.5 C7.6998379 69.1000143 1.89227602 69.26280207 -3.625 64.6875 C-6.41921024 60.05353747 -7.02921323 56.47683835 -7.13671875 51.1015625 C-7.15466995 50.39977875 -7.17262115 49.697995 -7.19111633 48.97494507 C-7.24489047 46.75418947 -7.27900693 44.5336446 -7.3125 42.3125 C-7.34570237 40.79814796 -7.38019471 39.28382362 -7.41601562 37.76953125 C-7.50059581 34.07572326 -7.5675635 30.38184121 -7.625 26.6875 C-8.759375 26.378125 -9.89375 26.06875 -11.0625 25.75 C-14.625 24.6875 -14.625 24.6875 -15.625 23.6875 C-15.3125 20.1875 -15.3125 20.1875 -14.625 16.6875 C-11.91620665 15.33310332 -9.61566732 15.62248549 -6.625 15.6875 C-6.65980469 14.70007813 -6.69460938 13.71265625 -6.73046875 12.6953125 C-6.77107422 10.77332031 -6.77107422 10.77332031 -6.8125 8.8125 C-6.84730469 7.53632812 -6.88210938 6.26015625 -6.91796875 4.9453125 C-6.82128906 3.87023437 -6.72460938 2.79515625 -6.625 1.6875 C-3.625 -0.3125 -3.625 -0.3125 0 0 Z " fill="#231F20" transform="translate(599.625,76.3125)"/>
<path d="M0 0 C3.375 0.6875 3.375 0.6875 4.375 1.6875 C4.44771741 4.04063555 4.45870868 6.39583668 4.4375 8.75 C4.42847656 10.04035156 4.41945312 11.33070312 4.41015625 12.66015625 C4.39855469 13.65917969 4.38695312 14.65820312 4.375 15.6875 C5.36242187 15.66429688 6.34984375 15.64109375 7.3671875 15.6171875 C8.64851563 15.59914063 9.92984375 15.58109375 11.25 15.5625 C13.16425781 15.52769531 13.16425781 15.52769531 15.1171875 15.4921875 C18.375 15.6875 18.375 15.6875 20.375 17.6875 C20.625 20.6875 20.625 20.6875 20.375 23.6875 C18.375 25.6875 18.375 25.6875 15.1171875 25.8828125 C13.84101563 25.85960938 12.56484375 25.83640625 11.25 25.8125 C9.32800781 25.78542969 9.32800781 25.78542969 7.3671875 25.7578125 C6.37976563 25.73460938 5.39234375 25.71140625 4.375 25.6875 C4.51412471 30.08357256 4.66246803 34.47928723 4.8125 38.875 C4.85181641 40.12087891 4.89113281 41.36675781 4.93164062 42.65039062 C4.97353516 43.85244141 5.01542969 45.05449219 5.05859375 46.29296875 C5.09525146 47.39793701 5.13190918 48.50290527 5.16967773 49.64135742 C5.35652656 52.41342972 5.75662366 54.98292873 6.375 57.6875 C9.345 57.1925 9.345 57.1925 12.375 56.6875 C13.64375645 52.88123065 13.69463223 49.27154259 13.8984375 45.28125 C14.375 42.6875 14.375 42.6875 15.6875 40.83203125 C17.375 39.6875 17.375 39.6875 21 39.875 C22.11375 40.143125 23.2275 40.41125 24.375 40.6875 C26.95204801 45.84159602 25.99341794 53.76142598 24.25 59.125 C22.26495234 63.64074824 19.05708373 66.52526372 14.5 68.5 C7.6998379 69.1000143 1.89227602 69.26280207 -3.625 64.6875 C-6.41921024 60.05353747 -7.02921323 56.47683835 -7.13671875 51.1015625 C-7.15466995 50.39977875 -7.17262115 49.697995 -7.19111633 48.97494507 C-7.24489047 46.75418947 -7.27900693 44.5336446 -7.3125 42.3125 C-7.34570237 40.79814796 -7.38019471 39.28382362 -7.41601562 37.76953125 C-7.50059581 34.07572326 -7.5675635 30.38184121 -7.625 26.6875 C-8.759375 26.378125 -9.89375 26.06875 -11.0625 25.75 C-14.625 24.6875 -14.625 24.6875 -15.625 23.6875 C-15.3125 20.1875 -15.3125 20.1875 -14.625 16.6875 C-11.91620665 15.33310332 -9.61566732 15.62248549 -6.625 15.6875 C-6.65980469 14.70007813 -6.69460937 13.71265625 -6.73046875 12.6953125 C-6.77107422 10.77332031 -6.77107422 10.77332031 -6.8125 8.8125 C-6.84730469 7.53632812 -6.88210937 6.26015625 -6.91796875 4.9453125 C-6.82128906 3.87023437 -6.72460938 2.79515625 -6.625 1.6875 C-3.625 -0.3125 -3.625 -0.3125 0 0 Z " fill="#231F20" transform="translate(123.625,76.3125)"/>
<path d="M0 0 C-4.07492425 5.78109172 -8.640104 10.95528823 -13.4296875 16.15234375 C-16.62448932 19.69187342 -19.62227592 23.36546624 -22.6171875 27.07421875 C-25.39150223 30.48071339 -28.22049651 33.83745695 -31.0625 37.1875 C-31.55226318 37.76483887 -32.04202637 38.34217773 -32.54663086 38.93701172 C-33.69703343 40.29195319 -34.84840657 41.64607052 -36 43 C-38.95098494 41.52450753 -39.09301985 39.55485081 -40.20703125 36.48828125 C-40.62678223 35.34335205 -41.0465332 34.19842285 -41.47900391 33.01879883 C-41.91905762 31.79572021 -42.35911133 30.5726416 -42.8125 29.3125 C-43.26028809 28.08490967 -43.70807617 26.85731934 -44.16943359 25.5925293 C-45.45411095 22.06445666 -46.72901146 18.53302371 -48 15 C-48.47300537 13.68902344 -48.47300537 13.68902344 -48.95556641 12.3515625 C-50.31790538 8.57264502 -51.66892178 4.79007009 -53 1 C-35.813303 -4.1675438 -17.29846735 -5.57800867 0 0 Z " fill="#498D4C" transform="translate(329,89)"/>
<path d="M0 0 C1.24910156 -0.01836914 1.24910156 -0.01836914 2.5234375 -0.03710938 C3.71839844 -0.04000977 3.71839844 -0.04000977 4.9375 -0.04296875 C6.03384766 -0.04913208 6.03384766 -0.04913208 7.15234375 -0.05541992 C9 0.1875 9 0.1875 11 2.1875 C11.24050903 4.62991333 11.24050903 4.62991333 11.22705078 7.73876953 C11.22689972 8.89982208 11.22674866 10.06087463 11.22659302 11.2571106 C11.21627045 12.51546722 11.20594788 13.77382385 11.1953125 15.0703125 C11.1924826 16.35485321 11.18965271 17.63939392 11.18673706 18.96286011 C11.17909809 22.37912767 11.15944752 25.79522537 11.1373291 29.21142578 C11.11687624 32.69691673 11.10773655 36.1824351 11.09765625 39.66796875 C11.07620175 46.50788231 11.04206271 53.347683 11 60.1875 C12.299375 60.166875 13.59875 60.14625 14.9375 60.125 C16.29165633 60.10350546 17.64756083 60.11601801 19 60.1875 C20 61.1875 20 61.1875 20.25 64.625 C20.1675 65.800625 20.085 66.97625 20 68.1875 C15.12873683 71.43500878 9.72409973 70.51535434 4 70.5 C2.79859375 70.51611328 1.5971875 70.53222656 0.359375 70.54882812 C-0.79046875 70.54947266 -1.9403125 70.55011719 -3.125 70.55078125 C-4.17945313 70.55376221 -5.23390625 70.55674316 -6.3203125 70.55981445 C-9 70.1875 -9 70.1875 -10.84765625 68.82495117 C-12.47141755 66.51762764 -12.35311591 64.94180406 -12 62.1875 C-11.34 61.5275 -10.68 60.8675 -10 60.1875 C-7.36 60.1875 -4.72 60.1875 -2 60.1875 C-2 44.0175 -2 27.8475 -2 11.1875 C-4.64 10.8575 -7.28 10.5275 -10 10.1875 C-10.66 9.5275 -11.32 8.8675 -12 8.1875 C-11.75 4.625 -11.75 4.625 -11 1.1875 C-7.58173253 -0.52163373 -3.76645237 0.00291521 0 0 Z " fill="#231F20" transform="translate(402,73.8125)"/>
<path d="M0 0 C-5.12826289 7.73645157 -5.12826289 7.73645157 -8.6875 8.8125 C-9.450625 8.874375 -10.21375 8.93625 -11 9 C-11.515625 9.53625 -12.03125 10.0725 -12.5625 10.625 C-13.036875 11.07875 -13.51125 11.5325 -14 12 C-17.48993915 11.76733739 -20.09112913 9.81804429 -23 8 C-28.41040456 4.8160519 -34.75087705 5.19238754 -40.71875 6.67578125 C-42.84625031 7.38607012 -44.92864197 8.14077 -47 9 C-51.875 4.375 -51.875 4.375 -53 1 C-35.813303 -4.1675438 -17.29846735 -5.57800867 0 0 Z " fill="#5DAC62" transform="translate(329,89)"/>
<path d="M0 0 C2.31319022 1.46441334 4.37040468 2.80676599 6.29296875 4.7578125 C6.29296875 5.7478125 6.29296875 6.7378125 6.29296875 7.7578125 C5.63296875 7.7578125 4.97296875 7.7578125 4.29296875 7.7578125 C4.18984375 8.3559375 4.08671875 8.9540625 3.98046875 9.5703125 C3.2042042 12.04024514 2.22207954 13.08032485 0.29296875 14.7578125 C-0.36703125 14.0978125 -1.02703125 13.4378125 -1.70703125 12.7578125 C-6.35412685 9.65974877 -10.36863704 10.36808013 -15.70703125 11.2578125 C-16.36703125 11.4228125 -17.02703125 11.5878125 -17.70703125 11.7578125 C-17.61421875 10.5821875 -17.61421875 10.5821875 -17.51953125 9.3828125 C-17.58140625 8.5165625 -17.64328125 7.6503125 -17.70703125 6.7578125 C-18.69703125 6.0978125 -19.68703125 5.4378125 -20.70703125 4.7578125 C-20.70703125 3.7678125 -20.70703125 2.7778125 -20.70703125 1.7578125 C-14.11229227 -1.75938162 -7.03964391 -3.23031279 0 0 Z " fill="#61A765" transform="translate(304.70703125,99.2421875)"/>
<path d="M0 0 C2.0625 3.3125 2.0625 3.3125 3 7 C2.3125 9.375 2.3125 9.375 1 11 C-5.31376993 14.15688496 -14.43940751 11.37343245 -21 10 C-21.57421875 7.60546875 -21.57421875 7.60546875 -22 5 C-20.19719331 2.4381168 -17.911743 1.08150454 -15 0 C-13.00039988 -0.039992 -10.99952758 -0.04346799 -9 0 C-5.70635342 -1.64682329 -3.46712768 -0.97322882 0 0 Z " fill="#FBFDFD" transform="translate(297,41)"/>
<path d="M0 0 C0.99 0.495 0.99 0.495 2 1 C2 1.66 2 2.32 2 3 C4.69582961 2.52426536 7.07988237 1.96766666 9.625 0.9375 C17.02675632 -1.11854342 23.70945896 -0.84916025 30.44140625 2.9296875 C32 4 32 4 34 6 C34.99 6 35.98 6 37 6 C37.66 4.35 38.32 2.7 39 1 C39.99 1 40.98 1 42 1 C42.73046875 2.70703125 42.73046875 2.70703125 43 5 C41.48828125 7.32421875 41.48828125 7.32421875 39.3125 9.6875 C38.25482422 10.86892578 38.25482422 10.86892578 37.17578125 12.07421875 C35.00836595 13.99259531 33.82334104 14.62397941 31 15 C31 14.34 31 13.68 31 13 C31.66 13 32.32 13 33 13 C31.81468311 9.31234744 29.56710946 7.54785136 26.19140625 5.7578125 C19.78011577 3.5407174 12.18200022 4.44656513 6 7 C5.67 7.99 5.34 8.98 5 10 C4.16121545 8.71186658 3.32913217 7.41936744 2.5 6.125 C2.0359375 5.40570313 1.571875 4.68640625 1.09375 3.9453125 C0 2 0 2 0 0 Z " fill="#61AD66" transform="translate(278,94)"/>
<path d="M0 0 C1.7890625 1.29296875 1.7890625 1.29296875 3 3 C2.6875 6.6875 2.6875 6.6875 2 10 C-0.0622048 10.054348 -2.12482816 10.09294961 -4.1875 10.125 C-5.33605469 10.14820313 -6.48460937 10.17140625 -7.66796875 10.1953125 C-10.91740372 10.00484152 -13.08660521 9.39360127 -16 8 C-15.875 5.6875 -15.875 5.6875 -15 3 C-10.52618989 -0.24351233 -5.39339788 -1.04786016 0 0 Z " fill="#FBFDFD" transform="translate(331,31)"/>
<path d="M0 0 C0.99 0.66 1.98 1.32 3 2 C3 3.32 3 4.64 3 6 C-0.50481599 5.35096 -2.99483374 3.87822891 -6 2 C-10.79962963 -0.82451552 -15.57410493 -0.51187689 -21 0 C-23.49549991 0.66988346 -25.83091427 1.46827434 -28.22265625 2.44140625 C-30 3 -30 3 -32 2 C-31.04958706 -0.38341898 -30.46877569 -1.72388597 -28.22265625 -3.046875 C-17.59770171 -6.50526888 -9.55569796 -5.88317225 0 0 Z " fill="#EAF4EE" transform="translate(312,95)"/>
<path d="M0 0 C2.31319022 1.46441334 4.37040468 2.80676599 6.29296875 4.7578125 C6.29296875 5.7478125 6.29296875 6.7378125 6.29296875 7.7578125 C3.2892149 7.27721188 1.68063218 6.36921429 -0.95703125 4.6953125 C-5.06864442 2.26893134 -7.97695674 2.30006335 -12.70703125 2.7578125 C-15.44477743 3.68526899 -15.44477743 3.68526899 -17.70703125 4.7578125 C-18.69703125 4.7578125 -19.68703125 4.7578125 -20.70703125 4.7578125 C-20.70703125 3.7678125 -20.70703125 2.7778125 -20.70703125 1.7578125 C-14.11229227 -1.75938162 -7.03964391 -3.23031279 0 0 Z " fill="#F8FBFA" transform="translate(304.70703125,99.2421875)"/>
<path d="M0 0 C0.99 0 1.98 0 3 0 C3.73046875 1.70703125 3.73046875 1.70703125 4 4 C2.48828125 6.32421875 2.48828125 6.32421875 0.3125 8.6875 C-0.39261719 9.47511719 -1.09773438 10.26273438 -1.82421875 11.07421875 C-3.99163405 12.99259531 -5.17665896 13.62397941 -8 14 C-8 13.34 -8 12.68 -8 12 C-7.34 12 -6.68 12 -6 12 C-7.55720014 8.17778149 -10.07392584 5.84907221 -13 3 C-13 2.67 -13 2.34 -13 2 C-10.6875 1.8125 -10.6875 1.8125 -8 2 C-6.375 3.5 -6.375 3.5 -5 5 C-4.01 5 -3.02 5 -2 5 C-1.34 3.35 -0.68 1.7 0 0 Z " fill="#55A059" transform="translate(317,95)"/>
<path d="M0 0 C2.9375 2.0625 2.9375 2.0625 5 4 C4.67 5.32 4.34 6.64 4 8 C3.34 7.34 2.68 6.68 2 6 C-2.6470956 2.90193627 -6.66160579 3.61026763 -12 4.5 C-12.66 4.665 -13.32 4.83 -14 5 C-14 4.01 -14 3.02 -14 2 C-8.85803895 -0.62344952 -5.7910714 -1.60863095 0 0 Z " fill="#F1F7F4" transform="translate(301,106)"/>
<path d="M0 0 C6.6 0 13.2 0 20 0 C20 0.99 20 1.98 20 3 C10.595 3.495 10.595 3.495 1 4 C0.67 2.68 0.34 1.36 0 0 Z " fill="#A5A7AA" transform="translate(295,70)"/>
<path d="M0 0 C1.98 0 3.96 0 6 0 C6 1.98 6 3.96 6 6 C3.625 6.625 3.625 6.625 1 7 C0.34 6.34 -0.32 5.68 -1 5 C-0.625 2.375 -0.625 2.375 0 0 Z " fill="#F9FCFB" transform="translate(293,113)"/>
<path d="M0 0 C0.99 0.495 0.99 0.495 2 1 C2 1.66 2 2.32 2 3 C5.465 2.505 5.465 2.505 9 2 C9.99 3.485 9.99 3.485 11 5 C10.195625 5.268125 9.39125 5.53625 8.5625 5.8125 C7.716875 6.204375 6.87125 6.59625 6 7 C5.67 7.99 5.34 8.98 5 10 C4.16121545 8.71186658 3.32913217 7.41936744 2.5 6.125 C2.0359375 5.40570313 1.571875 4.68640625 1.09375 3.9453125 C0 2 0 2 0 0 Z " fill="#59A25D" transform="translate(278,94)"/>
<path d="M0 0 C2.64 0.99 5.28 1.98 8 3 C7.34 4.98 6.68 6.96 6 9 C1.125 4.5 1.125 4.5 0 0 Z " fill="#4F9852" transform="translate(281,102)"/>
<path d="M0 0 C1.19882812 0.15275391 1.19882812 0.15275391 2.421875 0.30859375 C3.02515625 0.39238281 3.6284375 0.47617188 4.25 0.5625 C3.92 1.2225 3.59 1.8825 3.25 2.5625 C-0.38 2.5625 -4.01 2.5625 -7.75 2.5625 C-8.08 1.9025 -8.41 1.2425 -8.75 0.5625 C-5.62819599 -0.40411363 -3.22916205 -0.42738909 0 0 Z " fill="#58A45C" transform="translate(298.75,95.4375)"/>
</svg>
